/* XPM */
static char *result[] = {
/* columns rows colors chars-per-pixel */
"31 29 169 2 ",
"   c #000031",
".  c #000032",
"X  c #001133",
"o  c #001333",
"O  c #001632",
"+  c #001732",
"@  c #001633",
"#  c #001733",
"$  c #001634",
"%  c #001B30",
"&  c #001833",
"*  c #001D30",
"=  c #001E31",
"-  c #001E32",
";  c #051E31",
":  c #061E32",
">  c #001B37",
",  c #001C34",
"<  c #001E34",
"1  c #091F33",
"2  c #081F34",
"3  c #091F34",
"4  c #0F1F34",
"5  c #001C38",
"6  c #121E33",
"7  c #121F33",
"8  c #111F34",
"9  c #131F34",
"0  c #372335",
"q  c #382335",
"w  c #3D2534",
"e  c #3E2534",
"r  c #741F39",
"t  c #402534",
"y  c #412534",
"u  c #4F2334",
"i  c #4E2236",
"p  c #45233F",
"a  c #4A253F",
"s  c #40283C",
"d  c #522334",
"f  c #522435",
"g  c #522436",
"h  c #562634",
"j  c #572734",
"k  c #5A2734",
"l  c #5A2736",
"z  c #512538",
"x  c #53263A",
"c  c #50253C",
"v  c #50253F",
"b  c #55253C",
"n  c #5B243A",
"m  c #5B253A",
"M  c #5E2439",
"N  c #5C253A",
"B  c #5B283C",
"V  c #63273A",
"C  c #6D2F3A",
"Z  c #77263B",
"A  c #73273E",
"S  c #792639",
"D  c #79273A",
"F  c #78273B",
"G  c #7E2B39",
"H  c #7F2B39",
"J  c #7F2B3A",
"K  c #7F2B3B",
"L  c #7B2B3F",
"P  c #7E2B3E",
"I  c #7C2C3F",
"U  c #7F2C3E",
"Y  c #7E2C3F",
"T  c #7F2C3F",
"R  c #693036",
"E  c #6B3136",
"W  c #6E3236",
"Q  c #733437",
"!  c #77363D",
"~  c #783539",
"^  c #78353A",
"/  c #7A373C",
"(  c #1B2441",
")  c #1A2544",
"_  c #2B2440",
"`  c #2D2542",
"'  c #302542",
"]  c #3D274E",
"[  c #272B53",
"{  c #282C54",
"}  c #2B2D58",
"|  c #4E2742",
" . c #4F2742",
".. c #412A40",
"X. c #432A4F",
"o. c #4C2B4E",
"O. c #4C2C4F",
"+. c #542740",
"@. c #572B4B",
"#. c #582C4C",
"$. c #582D4F",
"%. c #432A52",
"&. c #482C50",
"*. c #4B2D53",
"=. c #4C2D52",
"-. c #7F2B40",
";. c #65364F",
":. c #603453",
">. c #892B37",
",. c #892C37",
"<. c #8A2C37",
"1. c #802B39",
"2. c #81283A",
"3. c #81293A",
"4. c #802B3B",
"5. c #832A3A",
"6. c #862939",
"7. c #842B3A",
"8. c #852B3A",
"9. c #862A3A",
"0. c #862C3A",
"q. c #872D3A",
"w. c #812C3D",
"e. c #8A2C38",
"r. c #8A2C39",
"t. c #8A2D3A",
"y. c #8A2D3B",
"u. c #8C3239",
"i. c #8D333A",
"p. c #82393B",
"a. c #843A3B",
"s. c #863C3B",
"d. c #893C3B",
"f. c #92323B",
"g. c #93323B",
"h. c #9A373B",
"j. c #9F3738",
"k. c #953F3E",
"l. c #9E3A38",
"z. c #9C3A3B",
"x. c #9D3A3B",
"c. c #95403E",
"v. c #98413E",
"b. c #A3453A",
"n. c #A5463B",
"m. c #A84739",
"M. c #A84839",
"N. c #AA4839",
"B. c #B0443B",
"V. c #B1443C",
"C. c #B3453C",
"Z. c #B2473D",
"A. c #B6473C",
"S. c #B94739",
"D. c #B3483D",
"F. c #B74D3F",
"G. c #BD4D3B",
"H. c #B94B3C",
"J. c #BA4B3C",
"K. c #BB4C3C",
"L. c #C04E3C",
"P. c #C14E3C",
"I. c #C04F3C",
"U. c #C65239",
"Y. c #C3513C",
"T. c #CD533D",
"R. c #A74241",
"E. c #B24B40",
"W. c #A3B315",
/* pixels */
"W.W.W.W.W.W.W.W.W.W.W.W.W.W.W.W.W.W.W.W.W.W.W.W.W.W.W.W.W.W.W.",
"W.W.W.W.W.W.W.W.W.W.W.W.W.W.W.W.W.W.W.W.W.W.W.W.W.W.W.W.W.W.W.",
"W.W.W.W.W.W.W.W.W.W.W.W.W.W.W.W.W.W.W.W.W.W.W.W.W.W.W.W.W.W.W.",
"W.W.W.W.W.W.W.W.W.W.W.W.W.W.W.W.W.W.W.W.W.W.W.W.W.W.W.W.W.W.W.",
"W.W.W.W.W.W.W.W.W.W.W.W.W.W.W.W.W.W.W.W.W.W.W.W.W.W.W.W.W.W.W.",
"W.W.W.W.W.W.W.W.W.W.W.W.W.W.W.W.W.W.W.W.W.W.W.W.W.W.W.W.W.W.W.",
"W.W.W.W.W.W.W.W.W.W.W.W.W.W.W.W.W.W.W.W.W.W.W.W.W.W.W.W.W.W.W.",
"W.W.W.W.W.W.W.W.W.W.W.W.W.W.W.W.W.W.W.W.W.W.W.W.W.W.W.W.W.W.W.",
"W.W.W.W.W.W.W.W.W.W.W.W.W.W.W.W.W.W.W.W.W.W.W.W.W.W.W.W.W.W.W.",
"W.W.W.W.W.W.W.W.W.W.W.W.W.W.W.W.W.W.W.W.W.W.W.W.W.W.W.W.W.W.W.",
"W.W.W.W.W.W.W.W.W.W.W.W.W.W.W.W.W.W.W.W.W.W.W.W.W.W.W.W.W.W.W.",
"W.W.W.W.W.W.W.W.W.W.W.W.W.W.W.W.W.W.W.W.W.W.W.W.W.W.W.W.W.W.W.",
"W.W.W.W.W.W.W.W.W.W.W.W.W.W.W.W.W.W.W.W.W.W.W.W.W.W.W.W.W.W.W.",
"W.W.W.W.W.W.W.W.W.W.W.W.W.W.W.W.W.W.W.W.W.W.W.W.W.W.W.W.W.W.W.",
"W.W.W.W.W.o W.W.W.W.W.W.W.W.W.W.W.W.W.W.W.W.W.W.W.o W.W.W.W.W.",
"W.W.W.W.q s 0 W.W.W.W.W.W.W.W.W.W.W.W.W.W.W.W.W.0 s q W.W.W.W.",
"W.W.  W n.F.b.R . W.W.W.W.W.W.W.W.W.W.W.W.W.. R b.F.n.W   W.W.",
"W.W.t v.P.T.L.c.w W.W.W.W.W.W.W.W.W.W.W.W.W.e k.L.T.P.v.y W.W.",
"$ Q N.Z.z.h.x.D.M.E X W.W.W.W.W.W.W.W.W.X E m.D.x.h.z.Z.N.Q $ ",
"5 ^ K.B.2.r 5.C.H.! + W.W.W.W.W.W.W.W.W.O ! J.C.5.r 3.B.K.~ > ",
"< l i.f.0.5.0.g.u.h * 1 , & @ @ # # $ & % j u.g.0.5.0.f.i.k * ",
"4 i S 9.0.q.0.6.F a _ c C p.s.a.a.a.d./ ..p Z 6.0.q.0.6.D v ( ",
"3 g 1.t.0.0.0.e.U o.X.A l.G.Y.I.I.I.U.E.;.] P e.0.0.0.e.w.@.[ ",
"3 g 1.t.0.0.0.<.T =.*.-.j.V.A.C.C.C.S.R.:.%.Y <.0.0.0.<.w.$.} ",
"3 g 1.t.0.0.0.<.U O.&.I ,.8.7.7.7.7.>.L &.O.U <.0.0.0.e.w.#.{ ",
"3 g 1.t.0.0.0.r.K | ' B V N n m m m M b `  .K r.0.0.0.r.4.+.) ",
"3 g 1.t.0.0.0.y.G u = 6 8 9 9 9 9 9 8 7 = u H y.0.0.0.y.1.d ; ",
"3 g 1.t.0.0.0.t.H z - W.W.W.W.W.W.W.W.W.- z H t.0.0.0.t.1.f : ",
"3 g 1.t.0.0.0.t.J x < W.W.W.W.W.W.W.W.W.< x J t.0.0.0.t.1.g 2 "
};
