/* XPM */
static char *result[] = {
/* columns rows colors chars-per-pixel */
"25 25 159 2 ",
"   c #007300",
".  c #006737",
"X  c #047231",
"o  c #277C31",
"O  c #287A39",
"+  c #297B3A",
"@  c #005741",
"#  c #2A6757",
"$  c #286A51",
"%  c #2E487E",
"&  c #345A77",
"*  c #35567C",
"=  c #315C7D",
"-  c #2C6462",
";  c #336D71",
":  c #3F617A",
">  c #00801B",
",  c #11AA00",
"<  c #28AD00",
"1  c #20BA00",
"2  c #008133",
"3  c #29892E",
"4  c #2D8631",
"5  c #2A8137",
"6  c #338F36",
"7  c #00AE30",
"8  c #2FAC27",
"9  c #37B32C",
"0  c #27A03F",
"q  c #3EA931",
"w  c #36A73F",
"e  c #3BA03C",
"r  c #41A833",
"t  c #46B439",
"y  c #45B83F",
"u  c #00C200",
"i  c #00D600",
"p  c #36CC0C",
"a  c #3FD619",
"s  c #0CE100",
"d  c #00CD23",
"f  c #3BC221",
"g  c #3ECB25",
"h  c #38CD26",
"j  c #23D53C",
"k  c #3FD831",
"l  c #48DF12",
"z  c #41CD29",
"x  c #41C13D",
"c  c #44D233",
"v  c #4FD839",
"b  c #52DD3C",
"n  c #329166",
"m  c #4BBD44",
"M  c #419867",
"N  c #598073",
"B  c #489473",
"V  c #5C9D7B",
"C  c #669F6A",
"Z  c #4FC645",
"A  c #52C747",
"S  c #52CE43",
"D  c #57CE4A",
"F  c #55DA41",
"G  c #59DF44",
"H  c #5CDE46",
"J  c #54D349",
"K  c #57D249",
"L  c #57D448",
"P  c #58D449",
"I  c #58D549",
"U  c #59D54B",
"Y  c #5CD64E",
"T  c #56D84A",
"R  c #58DA48",
"E  c #5BDA49",
"W  c #5AD94E",
"Q  c #5EDF4C",
"!  c #5EDF4E",
"~  c #58D251",
"^  c #58D053",
"/  c #64C05E",
"(  c #61DB52",
")  c #62DA54",
"_  c #67DC5C",
"`  c #7BDD50",
"'  c #5EE246",
"]  c #61E151",
"[  c #66E158",
"{  c #6CDE62",
"}  c #79D878",
"|  c #6BE060",
" . c #79E76C",
".. c #7EE276",
"X. c #F7E500",
"o. c #F4EB2F",
"O. c #EFEC3E",
"+. c #F3EC31",
"@. c #F6ED3C",
"#. c #F8ED3C",
"$. c #FCED3C",
"%. c #83E87D",
"&. c #9DE27D",
"*. c #F5F060",
"=. c #F7F06A",
"-. c #374F81",
";. c #374D82",
":. c #374A84",
">. c #3C5F89",
",. c #40598E",
"<. c #76E58D",
"1. c #97B8A6",
"2. c #89E186",
"3. c #8FE88B",
"4. c #9CE69F",
"5. c #B5ED98",
"6. c #9DD0A0",
"7. c #AAC3B1",
"8. c #A8EDA8",
"9. c #B0F2B2",
"0. c #FFFF87",
"q. c #DDF1AB",
"w. c #EFF6B8",
"e. c #FFFFB7",
"r. c #B9CDC6",
"t. c #C5FFC6",
"y. c #C7FFCB",
"u. c #CDF4D3",
"i. c #C7F7DE",
"p. c #D0FAD4",
"a. c #D3F2DA",
"s. c #D2FED8",
"d. c #D8FEDE",
"f. c #EFFFC9",
"g. c #EFF9CF",
"h. c #D9FAE5",
"j. c #FFFFE7",
"k. c #FFFFEB",
"l. c #E8FAF1",
"z. c #EAFFF1",
"x. c #EAFFF2",
"c. c #E9FFF7",
"v. c #EEFBF8",
"b. c #EAFFF8",
"n. c #EAFFF9",
"m. c #EDFFF8",
"M. c #EDFFF9",
"N. c #E8FFFD",
"B. c #EEFFFC",
"V. c #EEFFFF",
"C. c #F0FFF8",
"Z. c #F1FFF8",
"A. c #F1FFFB",
"S. c #F1FFFE",
"D. c #F8FFFF",
"F. c #FAFFFF",
"G. c #FFFFFE",
"H. c white",
"J. c #A3B315",
/* pixels */
"J.J.J.J.J.J.J.J.J.J.J.J.J.J.J.J.J.J.J.J.J.J.J.J.J.",
"J.J.J.J.J.J.J.J.J.J.J.J.J.J.J.J.J.J.J.J.J.J.J.J.J.",
"J.J.J.J.J.J.J.J.J.J.J.J.J.J.J.J.J.J.J.J.J.J.J.J.J.",
"J.J.J.J.J.J.J.J.J.J.J.J.J.J.J.J.J.J.J.J.J.J.J.J.J.",
"J.J.J.J.J.J.J.J.J.J.J.J.J.J.J.J.J.J.J.J.J.J.J.J.J.",
"J.J.J.J.J.J.J.J.J.J.J.J.J.J.J.J.J.J.J.J.J.J.J.J.J.",
"J.J.J.J.J.J.J.J.J.J.J.J.J.J.J.J.J.J.J.J.J.J.J.J.J.",
"J.J.J.J.J.J.J.J.J.J.J.J.J.J.J.J.J.J.J.J.J.J.J.J.J.",
"J.J.J.J.J.J.J.J.J.J.J.J.J.J.J.J.J.J.J.J.J.J.J.J.J.",
"J.J.J.J.J.J.J.J.J.J.J.J.J.J.J.J.J.J.J.J.J.J.J.J.J.",
"J.J.J.J.J.J.J.J.J.J.J.J.J.J.J.J.J.J.J.J.J.J.J.J.J.",
"J.J.J.J.J.J.J.J.J.J.N.c.z.J.J.J.J.J.J.J.J.J.J.J.J.",
"J.J.J.J.J.J.J.J.J.x.D.H.x.z.J.J.J.J.J.J.J.J.J.J.J.",
"J.J.J.J.J.J.J.J.J.w.k.H.H.B.J.J.J.J.J.J.J.J.J.J.J.",
"J.J.J.J.J.J.J.J.J.o.0.j.C.V.J.J.n.b.m.x.J.J.J.J.J.",
"J.J.J.J.J.J.J.J.J.J.+.q.u.i.J.J.g.H.H.A.M.J.J.J.J.",
"J.J.J.J.J.@.$.J.J.J.J.&.2.<.J.J.=.e.G.S.J.J.J.J.J.",
"J.J.J.J.J.#.O.J.J.J.J.i a d J.J.X.*.f.h.J.J.J.J.J.",
"J.J.J.J.J.J.J.` j J.J.s b x 2 J.J.J.5.4.J.J.J.J.J.",
"J.J.J.J.J.J.J.T ( J.J.| U J e X J.J.k v ) J.J.J.J.",
"J.J.J.J.J.J.7 c ..p.v.6.t f Z w . > u F 8.Z.J.J.J.",
"J.J.J.J.J.o 8 p 3.d.l.7.4 , I A 6 3 1 { y.x.F.J.J.",
"J.J.J.J.$ 5 9 z %.t.s.1.# 0 W E m y g _ 9.a.r.J.J.",
"J.J.:.* - O q S [  .} V & M ~ H P K R Y / C N : % ",
"J.J.;.>.; + r D G l h n -.B ^ ' Q ! ] L <   @ = ,."
};
