/* XPM */
static char *result[] = {
/* columns rows colors chars-per-pixel */
"20 30 194 2 ",
"   c black",
".  c #11000A",
"X  c #070019",
"o  c #1E001B",
"O  c #290006",
"+  c #350000",
"@  c #3B0005",
"#  c #26001C",
"$  c #2C001E",
"%  c #020025",
"&  c #0C0C29",
"*  c #1B0425",
"=  c #080634",
"-  c #170B30",
";  c #041733",
":  c #1A1A35",
">  c #230426",
",  c #2A1827",
"<  c #251E2E",
"1  c #241E30",
"2  c #23183D",
"3  c #381537",
"4  c #1C273A",
"5  c #242034",
"6  c #2B2334",
"7  c #26273B",
"8  c #332C3C",
"9  c #27363C",
"0  c #36353C",
"q  c #490000",
"w  c #500000",
"e  c #45001C",
"r  c #6C1B19",
"t  c #420B23",
"y  c #56192A",
"u  c #4A2A30",
"i  c #592D36",
"p  c #762E37",
"a  c #733630",
"s  c #73373C",
"d  c #7C333A",
"f  c #7D492A",
"g  c #130646",
"h  c #200045",
"j  c #301C47",
"k  c #002D4E",
"l  c #1B354C",
"z  c #252545",
"x  c #2A2647",
"c  c #2C2B4C",
"v  c #302743",
"b  c #31294A",
"n  c #2A3948",
"m  c #3C3946",
"M  c #2C2C52",
"N  c #362E50",
"B  c #3C2E51",
"V  c #243A55",
"C  c #3B3354",
"Z  c #003C79",
"A  c #273761",
"S  c #44294D",
"D  c #4B2D4C",
"F  c #572E48",
"G  c #4E314F",
"H  c #5C3549",
"J  c #422E50",
"K  c #513553",
"L  c #633747",
"P  c #37454D",
"I  c #334F56",
"U  c #3F4C5E",
"Y  c #00477B",
"T  c #394977",
"R  c #37547D",
"E  c #47474D",
"W  c #444B50",
"Q  c #4F4D52",
"!  c #514F59",
"~  c #475457",
"^  c #58565A",
"/  c #674759",
"(  c #6D575E",
")  c #785252",
"_  c #5A5E62",
"`  c #425672",
"'  c #475679",
"]  c #625E61",
"[  c #4B6C67",
"{  c #597774",
"}  c #686668",
"|  c #6F6F71",
" . c #6E7274",
".. c #6F7878",
"X. c #727274",
"o. c #7C7677",
"O. c #90352E",
"+. c #833738",
"@. c #963A36",
"#. c #874039",
"$. c #9C4137",
"%. c #AC4238",
"&. c #B24E3E",
"*. c #B3503F",
"=. c #D2731D",
"-. c #CC6B26",
";. c #C36238",
":. c #843A40",
">. c #88444B",
",. c #975C54",
"<. c #A24F41",
"1. c #AD5545",
"2. c #A95847",
"3. c #B45643",
"4. c #B65A47",
"5. c #BB5B45",
"6. c #9E6440",
"7. c #936150",
"8. c #AC6B44",
"9. c #AF6B4F",
"0. c #BE6546",
"q. c #B46550",
"w. c #8F746B",
"e. c #A16E69",
"r. c #B76B60",
"t. c #AC7769",
"y. c #C46749",
"u. c #C56E4A",
"i. c #C9764A",
"p. c #6C8776",
"a. c #728B79",
"s. c #B0873F",
"d. c #DF8230",
"f. c #E28736",
"g. c #B2B459",
"h. c #89877E",
"j. c #918E7E",
"k. c #A78773",
"l. c #B09377",
"z. c #BEA37E",
"x. c #DF8B4A",
"c. c #CB8250",
"v. c #D88652",
"b. c #DB8E54",
"n. c #E28949",
"m. c #E4914C",
"M. c #E59357",
"N. c #EEAF52",
"B. c #D38C6C",
"V. c #E29B6D",
"C. c #F5E775",
"Z. c #4A7784",
"A. c #577A85",
"S. c #7D7E80",
"D. c #638989",
"F. c #7E8183",
"G. c #6B948C",
"H. c #6A968D",
"J. c #77978B",
"K. c #6C9990",
"L. c #739C90",
"P. c #74A395",
"I. c #7BA999",
"U. c #858684",
"Y. c #8B8B8B",
"T. c #908F90",
"R. c #959595",
"E. c #9A9895",
"W. c #989798",
"Q. c #9A9A9A",
"!. c #89AB99",
"~. c #92AC99",
"^. c #98B39B",
"/. c #B8A887",
"(. c #A4B79B",
"). c #88B8A3",
"_. c #90B6A0",
"`. c #9ABDA3",
"'. c #A5B5A8",
"]. c #AEBAB6",
"[. c #B2BCB7",
"{. c #DBA68A",
"}. c #E7B492",
"|. c #9EC0A6",
" X c #AAC1B1",
".X c #E1D9CA",
"XX c #DCE7DE",
"oX c #E4E0D4",
"OX c #A3B315",
"+X c #A3B315",
"@X c #A3B315",
"#X c #A3B315",
"$X c #A3B315",
"%X c #A3B315",
/* pixels */
"R.R.R.R.E.E.R.R.R.R.R.R.Q.E.R.R.R.R.W.W.",
"Q.U.m n l n } R.( n l g . 0 E E P m ..Q.",
"Q.F.X 6.8.f W Q.I a s.g. X..  u #.O X.Q.",
"Q.w., v.m.8.V Y.P 8.N.C.#XR.  L 3.t X.Q.",
"Q.F.# 1.3.>.c u c >.y.v.n.7.V F d > X.Q.",
"W.F.> 2.3.i.b.x.b.u.0.M.d.oX.X=.4.e X.Q.",
"Q.S.* 2.3.y.u.u.u.i.v.M.n.}.{.;.0.,  .Q.",
"Q.F.o 2.*.*.&.&.%.i.m.x.m.f.-.%.3.e  .Q.",
"R.a.0 2.q.q.q.q.q.B.V.V.V.V.B.r.9.u ..W.",
"} U H.G.~.^.^.^.XX$X+X+X+X+X+XOX^.L.[ ^ ",
"] ~ P.H._.|.|.`.+X%X$X$X$X$X%X@X^.I.[ Q ",
"] 9 { [ p.a.a.p.'.[.[.].].[.[.'.p.{ P Q ",
" .6 * > % $ e e @     + q w +   = * 6 } ",
"Q.F.& M k >.5.3.5.) L y.b.M.9.k ' ; X.E.",
"Q.S., i.x.k.j.n.n.;.,.J.(.`.z.c.D.4 X.Q.",
"Q.a.- e.t.h.G.e./.l.j.!.k.k.z./.K.9 X.Q.",
"Q.w.% Y Y Z.D.Z !.I.P.(.k.q.j.).D.4 X.Q.",
"Q.F.- ' ` A.G.T !.!.P.^.`.P.I.~.T = X.E.",
"W.R.T.P h { H.T K.A.D.`.P.A.A.P.R = X.Q.",
"W.Y._ C j ~ ` A } / / w.( / / ( / * X.E.",
"Q.S.  M M S i F +.$.$.O.@.$.$.@.+.$ o.Q.",
"R.o.u H N F +.p &.1.1.2.3.1.1.<.s > } T.",
"} a 4.4.a ; 2 1 1 : z N d G z : 5 N 2 ^ ",
"~ r 5.0.s ; 3 < < < 2 J +.F z , 5 C = Q ",
"S.( +.#.i 4 v z z x b B L S x z 6 = ! w.",
"Q.Y.P ! v z N D D S b b M M S D 7 E F.Q.",
"R.E.E.Q.] = G d +.i 7 8 N M H p z T.Q.R.",
"R.R.E.Q.] ; K :.@ | R.U.8 c L d % Y.W.W.",
"R.R.R.Q.^ X 3 y } Y.Q.T.1 = 3 i ..R.W.W.",
"R.W.R.Q. .Q ^ ~ T.Q.W.T.^ ^ ~ } Q.R.R.W."
};
