/* XPM */
static char *result[] = {
/* columns rows colors chars-per-pixel */
"23 30 207 2 ",
"   c #000001",
".  c #1F000D",
"X  c #000018",
"o  c #2A0000",
"O  c #000024",
"+  c #05062A",
"@  c #00162C",
"#  c #071B2D",
"$  c #070534",
"%  c #001D36",
"&  c #1C1733",
"*  c #240133",
"=  c #261B39",
"-  c #00213B",
";  c #1D2138",
":  c #2C2233",
">  c #2C223C",
",  c #292A3A",
"<  c #36273B",
"1  c #343236",
"2  c #460007",
"3  c #58250B",
"4  c #6D2A1D",
"5  c #580E25",
"6  c #491828",
"7  c #5F1B31",
"8  c #6C1D29",
"9  c #4A2227",
"0  c #5A322F",
"q  c #482734",
"w  c #5A3037",
"e  c #5B323C",
"r  c #782835",
"t  c #6E3237",
"y  c #76313B",
"u  c #6A453A",
"i  c #757432",
"p  c #000043",
"a  c #000651",
"s  c #281B45",
"d  c #3F1E4A",
"f  c #022C43",
"g  c #192947",
"h  c #002653",
"j  c #0E2B52",
"k  c #292848",
"l  c #372B48",
"z  c #322A4D",
"x  c #293742",
"c  c #363445",
"v  c #3B3941",
"b  c #292A51",
"n  c #332B56",
"m  c #393355",
"M  c #323951",
"N  c #002968",
"B  c #233A65",
"V  c #4E3B43",
"C  c #4C304F",
"Z  c #57314C",
"A  c #5B324A",
"S  c #452E50",
"D  c #443254",
"F  c #612141",
"G  c #643547",
"H  c #783946",
"J  c #6E3F51",
"K  c #533F64",
"L  c #3A4446",
"P  c #3F4A54",
"I  c #3C585B",
"U  c #194E7A",
"Y  c #354A7A",
"T  c #43434B",
"R  c #4A4D54",
"E  c #564750",
"W  c #49555A",
"Q  c #54575D",
"!  c #5B5C5F",
"~  c #6E584A",
"^  c #765758",
"/  c #4A4F6E",
"(  c #5A5664",
")  c #635D62",
"_  c #765A6D",
"`  c #4E6470",
"'  c #537270",
"]  c #636165",
"[  c #656A6D",
"{  c #6A6B6E",
"}  c #6B6575",
"|  c #706F72",
" . c #70697B",
".. c #727375",
"X. c #71767A",
"o. c #767879",
"O. c #7C7B7D",
"+. c #8F0A00",
"@. c #A22D06",
"#. c #B43900",
"$. c #861629",
"%. c #89282F",
"&. c #9A3A29",
"*. c #8C2E31",
"=. c #8C3334",
"-. c #883837",
";. c #9B3E33",
":. c #B43D28",
">. c #BA5916",
",. c #8E453F",
"<. c #9A4739",
"1. c #955A30",
"2. c #A84A3A",
"3. c #B74935",
"4. c #AD6C3D",
"5. c #DE7A0D",
"6. c #E37D18",
"7. c #C97021",
"8. c #DC7B29",
"9. c #CF683F",
"0. c #974C43",
"q. c #865253",
"w. c #9E5251",
"e. c #AE4D40",
"r. c #AD5343",
"t. c #B25543",
"y. c #B45945",
"u. c #B95F47",
"i. c #B75F4A",
"p. c #BA5E4C",
"a. c #AA6A48",
"s. c #B66E50",
"d. c #AE7051",
"f. c #9E776A",
"g. c #837A78",
"h. c #917C71",
"j. c #C5774A",
"k. c #D0734F",
"l. c #E18733",
"z. c #CDC238",
"x. c #898777",
"c. c #A18577",
"v. c #A3917B",
"b. c #D4804E",
"n. c #C0805F",
"m. c #DB8B53",
"M. c #D88856",
"N. c #E09F49",
"B. c #E39759",
"V. c #D08E62",
"C. c #D99E6D",
"Z. c #CF9C70",
"A. c #E29966",
"S. c #F0CC4B",
"D. c #F0E166",
"F. c #4C6C83",
"G. c #4D7285",
"H. c #607383",
"J. c #7D7E80",
"K. c #817E80",
"L. c #5B8587",
"P. c #599B92",
"I. c #658988",
"U. c #7C8684",
"Y. c #6D948A",
"T. c #739C8E",
"R. c #6A9C92",
"E. c #7E9792",
"W. c #79A496",
"Q. c #868687",
"!. c #8C8C8D",
"~. c #908F8F",
"^. c #919984",
"/. c #8F8F90",
"(. c #A3B315",
"). c #A3B315",
"_. c #A3B315",
"`. c #A3B315",
"'. c #A99882",
"]. c #A09F9C",
"[. c #8BA88F",
"{. c #88A896",
"}. c #9AAB95",
"|. c #8AB79D",
" X c #98B69D",
".X c #AEA081",
"XX c #AEA98E",
"oX c #A1A09F",
"OX c #8EB8A2",
"+X c #97BAA1",
"@X c #9FB1B5",
"#X c #C9AF89",
"$X c #C0B5AE",
"%X c #E3BDA7",
"&X c #9FC6AC",
"*X c #A6C7AE",
"=X c #D8C9BD",
"-X c #D2DFBC",
";X c #E5D3BE",
":X c #F9E8BA",
">X c #BAD4C2",
",X c #ECF2DB",
"<X c #E2EFE4",
"1X c #E3F0E6",
"2X c #E6F4EA",
"3X c #F4FFFF",
"4X c #FBFFFF",
/* pixels */
"(.(.(.(._._.(.(.(.(.(.(.(._.(.(.(.~.(.(.(.(.(.",
"(.(.`.O.1 f , O.!., f $ O   Q (.! g f E (.).(.",
"(.(.].X.9 j.3 O.!.0 b.z.-X@X: oXP 1.4.- !.`.(.",
"(.(.`.X.0 b.e ` ` t b.S.:X$X  | h a.j.f ~.).(.",
"_.(.`.o.6 e.q.u u q.t.k.6.n.I.i ~ w.&.x /._.(.",
"(.(.`.o.6 y.k.M.m.k.p.m.l.%X,XD.N.k.;.k /._.(.",
"(.(.`.X.q y.u.i.u.u.y.m.B.A.A.B.j.t.<.x /._.(.",
"(.(.oXo.2 3.3.3.3.:.#.8.l.6.5.8.>.:.&.; (.`.(.",
").).J.] ' h.v.'.v.XX=X;X;X;X;X;X=X$Xx.' ] !.`.",
").}.R I W.R.OX*X|.>X4X4X3X3X3X3X4X<X|.T.@ g.`.",
"(.`.! I Y.I.[. X[.*X<X1X1X1X<X<X2X*X[.Y.1 g.`.",
"(.`.! X T v L M x P ! W I I I W ! W 1 1   U.`.",
"(.(.(.{ O p p y 2.r   +.>.7.7.@.  a j - U.(.(.",
"(.).U.^ 0.d.( q.9.j.a.f..X#X#Xc.a.x.H.,.| !._.",
"_._.[ t i.V.} _ s.V.C.T.{.}._.P.Z.v.U.2.V K.`.",
"(.(.oXJ.$ U Y I.L.G.OXY.f.3.d.Y.&XW.' k (.`.(.",
"(.(.`.o.; / Y L.L.H.+XR.{.oX}.Y. XE.B V /.`.(.",
"(.(.oXO.+ m n I.I.F.{.G.|.*XOXF.W.I.N 1 /._.(.",
"(.(.Q.) > = s ` ' ( ..K o.^.x./ [ } D v /._.(.",
"_.`.( O m n S d F =.*.-.%.$.%.-.=.-.8 c /._.(.",
"(.(.) * D z H y ,.y.y.t.y.y.i.r.u.0.7 v /._.(.",
"(.( 0.2.0.> < < q w w G Z J -.A w q < z T Q._.",
"/.@ &.k.3.: # & # @ @ g h Z r b % @ , m   J.`.",
"(.J.^ 4 t : k < k z l S m C A S z < * k ../._.",
"(.`.X.R W = z S Z S s k s k b z C q , ) (._.(.",
"(.(._.`.(.> k G %.t v 1 V c z b H 5 ( oX(.(._.",
"(._.(._.!.< z E 8 R (./.).o.= m H 5 R _.(.(._.",
"_.(.(._./.X + . V !._._.`.o.  $ o ] !.(._.(.(.",
"(._.(._./. .| [ J.`.(.(.(.Q.} ..{ !.`.(._.(.(.",
"_.(._.(._.`.`.`.`._.(._.(.`.`.`.`._.(.(._.(.(."
};
