/* XPM */
static char *result[] = {
/* columns rows colors chars-per-pixel */
"27 29 188 2 ",
"   c #1E0022",
".  c #0E1A28",
"X  c #070437",
"o  c #1C013B",
"O  c #2D0D3C",
"+  c #39003E",
"@  c #0F392B",
"#  c #1A342D",
"$  c #1D2138",
"%  c #1C2C3B",
"&  c #2B2A2A",
"*  c #223D2E",
"=  c #232B3A",
"-  c #37243C",
";  c #263534",
":  c #283534",
">  c #243B34",
",  c #29383C",
"<  c #460F2E",
"1  c #5D0626",
"2  c #6F1033",
"3  c #5A2334",
"4  c #552A36",
"5  c #5B2A35",
"6  c #5D3234",
"7  c #6D2B2E",
"8  c #6D2738",
"9  c #7D383B",
"0  c #20472E",
"q  c #2B522F",
"w  c #2C4132",
"e  c #2A4835",
"r  c #314D33",
"t  c #2C5432",
"y  c #2B5839",
"u  c #375A37",
"i  c #335C3B",
"p  c #35613A",
"a  c #386839",
"s  c #7F4137",
"d  c #42683A",
"f  c #437C3C",
"g  c #64773D",
"h  c #0E0043",
"j  c #140044",
"k  c #1B0044",
"l  c #131442",
"z  c #251B44",
"x  c #291844",
"c  c #341D44",
"v  c #1F2546",
"b  c #2F2445",
"n  c #292D41",
"m  c #2A3941",
"M  c #3A3647",
"N  c #3E3E49",
"B  c #232D53",
"V  c #3D3351",
"C  c #2E3F6E",
"Z  c #3A3D60",
"A  c #451D40",
"S  c #413448",
"D  c #5D3949",
"F  c #64354F",
"G  c #7F3F41",
"H  c #144641",
"J  c #2D4D44",
"K  c #354844",
"L  c #3A444C",
"P  c #2B5D43",
"I  c #375543",
"U  c #3B5A47",
"Y  c #395C5D",
"T  c #3E6745",
"R  c #327640",
"E  c #3D5178",
"W  c #474A52",
"Q  c #544E5A",
"!  c #475856",
"~  c #54525B",
"^  c #53555A",
"/  c #5A555D",
"(  c #5A5A5F",
")  c #62474C",
"_  c #7C4848",
"`  c #416C45",
"'  c #42694B",
"]  c #49734E",
"[  c #4A7556",
"{  c #666B45",
"}  c #4D5560",
"|  c #5B5660",
" . c #5D5D63",
".. c #614F6C",
"X. c #625A60",
"o. c #63536E",
"O. c #6C5C75",
"+. c #466C69",
"@. c #5D6264",
"#. c #547E6C",
"$. c #4B7A72",
"%. c #5A7D78",
"&. c #64636B",
"*. c #6A676C",
"=. c #637266",
"-. c #606770",
";. c #6B6C72",
":. c #6D7074",
">. c #757376",
",. c #757579",
"<. c #76787B",
"1. c #8B372B",
"2. c #802E3B",
"3. c #853836",
"4. c #86453A",
"5. c #99553C",
"6. c #B1493E",
"7. c #C1573D",
"8. c #8C3B44",
"9. c #9D4B40",
"0. c #9B5C42",
"q. c #9D5E52",
"w. c #AB5844",
"e. c #B45846",
"r. c #B95943",
"t. c #B56245",
"y. c #BC6847",
"u. c #BA7A49",
"i. c #A36152",
"p. c #C46946",
"a. c #D1754C",
"s. c #D47B4D",
"d. c #38843D",
"f. c #3A893D",
"g. c #4D8544",
"h. c #4E8A43",
"j. c #508748",
"k. c #528B4D",
"l. c #4F9946",
"z. c #559944",
"x. c #56944A",
"c. c #59964C",
"v. c #5D9C4E",
"b. c #588F54",
"n. c #5C9A52",
"m. c #5FA450",
"M. c #66AE53",
"N. c #66AA55",
"B. c #6AB357",
"V. c #6DBA56",
"C. c #6EBB59",
"Z. c #70BE59",
"A. c #568A65",
"S. c #598579",
"D. c #7ACF5D",
"F. c #7CD35F",
"G. c #A08D47",
"H. c #B6864A",
"J. c #95897E",
"K. c #D69C4F",
"L. c #CF8450",
"P. c #DC8551",
"I. c #DD8B52",
"U. c #DB9753",
"Y. c #E18852",
"T. c #E49655",
"R. c #E5A756",
"E. c #81DA62",
"W. c #86E365",
"Q. c #88E666",
"!. c #DCCE58",
"~. c #EECF5C",
"^. c #F7D85F",
"/. c #FAE760",
"(. c #4D6E84",
"). c #6B998F",
"_. c #868586",
"`. c #868689",
"'. c #89868B",
"]. c #8C8A8C",
"[. c #8C8E90",
"{. c #A3B315",
"}. c #8E9193",
"|. c #A3B315",
" X c #A3B315",
".X c #A3B315",
"XX c #A3B315",
"oX c #A3B315",
/* pixels */
"|.|.|.|.|.|.|.|.|.|. X XoXoXoXoXoX X|.|. X|.|.|.|.|.|.",
"|.|.|.|.|.|.|.|. XoX[.....o.o...o.'.oX X|. X|.|.|. X|.",
"|. X.X|. X|. XoX].O.@.j.j.j.j.h.g.=.;.].XX X|.|.|.|.XX",
"|.|.|.|.|. XoX'. .a N.D.F.F.D.F.E.c.: | ].oX X|.|.|.|.",
"|.XX|.|.|.|.'. .q z.D.Q.W.W.W.Q.F.z.t ;  .'. X|.|. X|.",
"|.|.|.|.oX|.*.= % i x.V.Z.C.C.C.j.U I t ; X.|.oX|.|.|.",
"|.|.|.|.oX'.Q $ ! ] g.c.c.c.c.b.[ L n m # ~ '. X|.|. X",
".X|.|.oX|.*.M J x.V.V.M.M.M.M.B.B.k.' U K K &.{.XX|.|.",
"|..X|.oX{.Q 0 T g.v.v.v.v.v.v.v.v.h.m.n.U X W {.XX|.|.",
"|.|.|.oX{.( t p = j k h h j k k X y x.z.T z ~ [.oX|. X",
".X|.|..X{.( $ , m c l x c b x z , ; o J x.j.Q ].oX|.|.",
"|.|.|..X{.( o A 3 4 5 3.s 6 4 4 5 5 + v N.V.L ..<.}.XX",
".X|.|.oX{.~   7 9 G u.K.w.8 w.5.5.2.3 O k.B.k.@ - `.oX",
"|.|.|..X|.-.M 5.e.H.^./.u.G.U.a.r.w.t.9 * l.V.f c `.oX",
"|.|.|.|.oX[. .0.P.R.!.!.R.~.R.Y.y.s.I.0.% P d e ~ ].XX",
".X|.|.|.oX}.} 1.s.L.s 9.T.T.T.I.p.e.9.5 X % ; ~ ]..X|.",
"|.|.|.|..X}.@._ p.s.6.r.P.Y.Y.p.w.8.2 5 S m / ].XX|. X",
"|.|.|.|.|..X`.X.4.t.e.e.t.y.y.3.F c - &.`.`.]. X X|.|.",
"|.|.|.|. X X;.m p { F ) g g g d , e $.+.:.|.oX|. X|.|.",
"|..X|.|.oX{.| @ a R H P d.f.d.y e S.).+.( ].oX|.|.|.|.",
"|.|..XoX}.;.D 6 i i e i f f a r J S.J.i.4.;.}.XX|.|.|.",
"|.|.|.oX[.~ 1 6 > , N L ' u : & @ Y q.7.1.Q [.oX|.|.|.",
".X|.|.oX}.,.) < w p ' U I u u w > . 7 1._ ,.XX X|.|.XX",
"|.|.XX|.XXXX,.M J [ ` d a a A.#.Y n W  .(.|.XXXX|.|.|.",
"|.|..X|.|.XX|.&.B E Z V Q / %.).(.B :.}. X|.|.|. X X|.",
"|.|.|.|.|..X|.>.L C C M ].].( %.E l :..X X|.|.|.|.|.|.",
"|.|.|.|.|.|..X}.*.W M / |.oX_.^ r S >.|. X|.|.|.|.|.|.",
"|..X|.|.|.|..XXX|.'.'.].|. X.X].'.].}.|. X|.|.|. X|. X",
"|.|.|.|..X|.|.|.|..XoX.X.X|.|..XoXoX X X X X X X|.|.|."
};
