/* XPM */
static char *result[] = {
/* columns rows colors chars-per-pixel */
"27 29 187 2 ",
"   c #1E0022",
".  c #0E1A28",
"X  c #070437",
"o  c #1C013B",
"O  c #2D0D3C",
"+  c #39003E",
"@  c #0F392B",
"#  c #1A342D",
"$  c #1D2138",
"%  c #1C2C3B",
"&  c #2B2A2A",
"*  c #223D2E",
"=  c #232B3A",
"-  c #37243C",
";  c #263534",
":  c #283534",
">  c #243B34",
",  c #29383C",
"<  c #3F323F",
"1  c #460F2E",
"2  c #5D0626",
"3  c #6F1033",
"4  c #5A2334",
"5  c #552A36",
"6  c #5B2A35",
"7  c #5D3234",
"8  c #6D2B2E",
"9  c #6D2738",
"0  c #6A3538",
"q  c #7D383B",
"w  c #20472E",
"e  c #2B522F",
"r  c #2C4132",
"t  c #2A4835",
"y  c #314D33",
"u  c #2C5432",
"i  c #23543E",
"p  c #2B5839",
"a  c #375A37",
"s  c #335C3B",
"d  c #35613A",
"f  c #386839",
"g  c #504C3A",
"h  c #7F4137",
"j  c #42683A",
"k  c #437C3C",
"l  c #64773D",
"z  c #0E0043",
"x  c #140044",
"c  c #1B0044",
"v  c #251B44",
"b  c #291844",
"n  c #341D44",
"m  c #1F2546",
"M  c #2F2445",
"N  c #292D41",
"B  c #2A3941",
"V  c #3A3647",
"C  c #3E3E49",
"Z  c #232D53",
"A  c #2E3F6E",
"S  c #3A3D60",
"D  c #451D40",
"F  c #413448",
"G  c #5D3949",
"H  c #64354F",
"J  c #144641",
"K  c #2D4D44",
"L  c #354844",
"P  c #3A444C",
"I  c #2B5D43",
"U  c #375543",
"Y  c #3B5A47",
"T  c #395C5D",
"R  c #3D6544",
"E  c #3E6745",
"W  c #327640",
"Q  c #3D5178",
"!  c #474A52",
"~  c #544E5A",
"^  c #475856",
"/  c #54525B",
"(  c #53555A",
")  c #5A555D",
"_  c #5A5A5F",
"`  c #62474C",
"'  c #7C4848",
"]  c #416C45",
"[  c #42694B",
"{  c #49734E",
"}  c #4A7556",
"|  c #666B45",
" . c #5E4A68",
".. c #4D5560",
"X. c #5B5660",
"o. c #5D5D63",
"O. c #614F6C",
"+. c #625A60",
"@. c #63536E",
"#. c #6C5C75",
"$. c #466C69",
"%. c #547E6C",
"&. c #4B7A72",
"*. c #5A7D78",
"=. c #64636B",
"-. c #6A676C",
";. c #637266",
":. c #606770",
">. c #6B6C72",
",. c #726C74",
"<. c #6D7074",
"1. c #757376",
"2. c #757579",
"3. c #76787B",
"4. c #8B372B",
"5. c #853836",
"6. c #86453A",
"7. c #99553C",
"8. c #B1493E",
"9. c #C1573D",
"0. c #8C3B44",
"q. c #9D4B40",
"w. c #9B5C42",
"e. c #9D5E52",
"r. c #AB5844",
"t. c #B45846",
"y. c #B95943",
"u. c #AF6647",
"i. c #B56245",
"p. c #BA7A49",
"a. c #C46946",
"s. c #D1754C",
"d. c #D47B4D",
"f. c #38843D",
"g. c #3A893D",
"h. c #4D8544",
"j. c #4E8A43",
"k. c #508748",
"l. c #528B4D",
"z. c #4F9946",
"x. c #559944",
"c. c #56944A",
"v. c #59964C",
"b. c #5D9C4E",
"n. c #588F54",
"m. c #5C9A52",
"M. c #5FA450",
"N. c #66AE53",
"B. c #66AA55",
"V. c #6AB357",
"C. c #6DBA56",
"Z. c #6EBB59",
"A. c #70BE59",
"S. c #568A65",
"D. c #598579",
"F. c #7ACF5D",
"G. c #7CD35F",
"H. c #A08D47",
"J. c #B6864A",
"K. c #D69C4F",
"L. c #CF8450",
"P. c #DC8551",
"I. c #DD8B52",
"U. c #DB9753",
"Y. c #E18852",
"T. c #E49655",
"R. c #E5A756",
"E. c #81DA62",
"W. c #86E365",
"Q. c #88E666",
"!. c #DCCE58",
"~. c #EECF5C",
"^. c #FAE760",
"/. c #4D6E84",
"(. c #6B998F",
"). c #A3B315",
"_. c #A3B315",
"`. c #A3B315",
"'. c #A3B315",
"]. c #A3B315",
"[. c #A3B315",
"{. c #8E9193",
"}. c #A3B315",
"|. c #A3B315",
" X c #A3B315",
".X c #A3B315",
"XX c #A3B315",
/* pixels */
"}.}.}.}.}.}..X}.}.|.XXXXXXXXXXXX X X|.}.}.}.}.}..X}.|.",
"}.}.}.}.}.}.}.XXXX`.@.O.@.@.@.@.'.XX X}.}.}.}.}.}.}.}.",
"}.}. X}.}..X.X`.,.;.h.h.k.k.j.h.o.#.`. X}.}.}.}..X}.}.",
"}.}.}.}.|.XX`.X.: v.E.G.F.F.G.G.B.f o.`.XXXX}.}.|.}.}.",
" X}.}.}.}._.o.; u x.E.Q.W.W.W.Q.F.x.e _ `.}.}.}.}.}.}.",
"}.}.}.XX.X+.; u U U k.A.A.C.A.A.c.U % = >.}. X}.}.}.}.",
".X}.}.XX`.~ # B N P } n.v.v.v.v.h.{ Y $ ~ `. X}.}.}.}.",
"}.}.XX[.=.L L Y [ c.V.V.N.N.N.N.V.Z.n.U V -.}. X}.}.|.",
"}.}.XX`.! X Y m.B.j.v.M.b.b.b.b.b.b.h.E w ( [.XX}.}.}.",
"}.}.XX}.) v ] x.c.p X c c x z z x x N d e ) [.XX}.}. X",
"}.}. X`.~ k.l.K o ; , v b M n b b n , B $ _ ].XX}.}.}.",
" X].2. .! C.B.m + 6 5 5 5 7 q q 4 4 4 D o _ ].XX}.}.}.",
" X_.- @ l.V.l.O 4 5.0.7.7.9 8.K.p.q 9 0   ( [.XX}.}.}.",
"XX_.M f F.z.> q u.i.9.s.U.H.J.^.^.J.t.w.< :.}. X}.}.}.",
" X'.) t f I % w.P.d.a.I.R.~.R.!.!.R.I.7.o.{.XX}.}.}.}.",
"}. X'./ > % X 4 q.t.a.I.T.T.I.r.6.L.L.4.( ].XX}.}.}.}.",
"}.}.XX`.) B F G 3 0.r.i.P.Y.I.y.8.d.a.h :.{.XX.X}.}.}.",
"}.}. X}.'._.).+.5 n G 0.i.i.i.t.y.i.6.o._. X.X}. X}. X",
"}. X}.}. X}.<.$.&.K ; [ l | l ` H | j , >.}.XX}.}.}.}.",
"}.}.}.}.XX[.) $.(.%.e s f.g.g.i J W f # X.'.XX}.}. X}.",
"}.}.}.XX}.>.' r.'.D.p y f k k s t s s g G >.{.XX}.}.}.",
"|.}.}.XX'.^ 4.y.e.T @ & : y [ P C ; > 0 2 ~ {.XX}.}.}.",
"}.}.}..X}.3.' 5.8 . * r a a Y R E I r 1 G 2.}.}.}.}.}.",
"}.}.}..X X|.3...F = T D.S.f d j [ } K V 3.}. X}.}.}.}.",
"}.|.}.}.|.}..X{.>.Z /.(.D.( ~ V S Q Z =.[.XX}.}.}.}.}.",
"}..X}.}.}.}.XX X,.$ Q *._ ].'.F A A S 1.}. X}. X}.}. X",
"}.}.}.|.}.}.}.}.3.F V ~ ).XX}._ L F ,.[.}.}. X}.}.}.}.",
"}.}.}.}.}.}.}.}.}.'.).'.}.}.}.].'.).}. X X}.}.}.}.}.}.",
"}.|.}.}..X}.}.|.}.XXXXXX}.}.}.XXXXXX X}.}.}.}.}.}. X}."
};
