/* XPM */
static char *result[] = {
/* columns rows colors chars-per-pixel */
"24 27 181 2 ",
"   c #000801",
".  c #111C00",
"X  c #36001D",
"o  c #3A1019",
"O  c #072A17",
"+  c #152D1F",
"@  c #232714",
"#  c #050027",
"$  c #02002C",
"%  c #12182A",
"&  c #000234",
"*  c #1E003C",
"=  c #131A33",
"-  c #261038",
";  c #002023",
":  c #152F33",
">  c #3D322B",
",  c #262639",
"<  c #332639",
"1  c #293939",
"2  c #343A3B",
"3  c #580C2D",
"4  c #4B1730",
"5  c #6B0033",
"6  c #621432",
"7  c #701830",
"8  c #443A38",
"9  c #5B3139",
"0  c #6E2734",
"q  c #772739",
"w  c #274D16",
"e  c #205E11",
"r  c #1E482C",
"t  c #194836",
"y  c #274929",
"u  c #2C4B33",
"i  c #284538",
"p  c #344836",
"a  c #2D523B",
"s  c #345435",
"d  c #385438",
"f  c #346627",
"g  c #296B3F",
"h  c #3A6538",
"j  c #3B653B",
"k  c #3C7538",
"l  c #47443B",
"z  c #78493C",
"x  c #416A3E",
"c  c #44753C",
"v  c #4F783C",
"b  c #000043",
"n  c #06194A",
"m  c #1C1B4A",
"M  c #200043",
"N  c #062647",
"B  c #003741",
"V  c #2B2146",
"C  c #362348",
"Z  c #2F3B45",
"A  c #3A3644",
"S  c #343A44",
"D  c #2E2E52",
"F  c #293658",
"G  c #343B51",
"H  c #293D63",
"J  c #450550",
"K  c #5D2940",
"L  c #453D4B",
"P  c #443C57",
"I  c #6B2F40",
"U  c #733748",
"Y  c #334E41",
"T  c #384E41",
"R  c #295C42",
"E  c #355543",
"W  c #3B5748",
"Q  c #396248",
"!  c #385A68",
"~  c #43424B",
"^  c #4B4748",
"/  c #4A474E",
"(  c #4A5747",
")  c #4B4550",
"_  c #454B53",
"`  c #4D4B52",
"'  c #485454",
"]  c #44515B",
"[  c #55535A",
"{  c #5A555C",
"}  c #446948",
"|  c #447345",
" . c #4D7552",
".. c #5A5F63",
"X. c #615D62",
"o. c #476766",
"O. c #50716E",
"+. c #67696C",
"@. c #716563",
"#. c #6C716E",
"$. c #6C6C71",
"%. c #716F73",
"&. c #737275",
"*. c #77787A",
"=. c #7B7B7C",
"-. c #86201D",
";. c #83242A",
":. c #8A383B",
">. c #934B2F",
",. c #9F5426",
"<. c #99473A",
"1. c #AA4D3C",
"2. c #B3563E",
"3. c #AF673E",
"4. c #954844",
"5. c #865849",
"6. c #BC4944",
"7. c #A85845",
"8. c #B55544",
"9. c #A86542",
"0. c #BC6A47",
"q. c #BE724A",
"w. c #AD7A5C",
"e. c #987868",
"r. c #C56845",
"t. c #CF794C",
"y. c #D7794D",
"u. c #CD7453",
"i. c #36853C",
"p. c #4D873D",
"a. c #53874C",
"s. c #579A46",
"d. c #56944B",
"f. c #5C9C4D",
"g. c #548453",
"h. c #588F55",
"j. c #5C9754",
"k. c #649D5A",
"l. c #5BA444",
"z. c #5DA44A",
"x. c #66B14E",
"c. c #66A558",
"v. c #578765",
"b. c #598376",
"n. c #71C357",
"m. c #74C559",
"M. c #78CC5C",
"N. c #7CD35E",
"B. c #7FD562",
"V. c #B3A84D",
"C. c #C8954F",
"Z. c #D0954E",
"A. c #DE8652",
"S. c #D39851",
"D. c #EA8C4C",
"F. c #E59257",
"G. c #CEAE4F",
"H. c #CCB453",
"J. c #DFBB56",
"K. c #E4A155",
"L. c #E8B558",
"P. c #D49D6F",
"I. c #82DD62",
"U. c #F3C75C",
"Y. c #F0D55D",
"T. c #F2E35F",
"R. c #FEFF67",
"E. c #827B85",
"W. c #5D8A82",
"Q. c #6C9A90",
"!. c #A3B315",
"~. c #A3B315",
"^. c #A3B315",
"/. c #A3B315",
"(. c #A3B315",
"). c #A3B315",
"_. c #A3B315",
"`. c #A3B315",
"'. c #A3B315",
"]. c #A3B315",
"[. c #A3B315",
/* pixels */
"(.(.(.(.(.(.(.(.[.(.E.E.E.E.E.E.!.[.[.'.'._.(.(.",
"(.(.`.(.(._._.(.^.=.s y d s s y #.!.(.`.(.(._.(.",
").(.(.(._._.[.#.# a.B.B.N.N.M.N.c.% $.'.`.(.(.(.",
"(.(.).(._.[.&., y s.I.I.B.I.I.I.B.z.y $.`.`.(._.",
"(.).(.`.`.&.2 a W | z.B.N.B.N.N.x.h.u < &.(.(.(.",
"(.(.(.'.]...O } 1 M W h.z.d.f.z.c & _ % ` `.'.(.",
"(.(.'.(.e.' i V V  .j.h.d.f.d.d.z.c.g.S P =.(.(.",
").(.`.(._ ; ]  .a.s.n.M.m.m.m.m.n.m.l. .: A (.).",
"(.(.`.(.[ & W x.x.j i E Y Y Y T Y E i } f / (.).",
"(.).[.`.[ a g.k Q t 1 m n m N N V m N E r / (.`.",
").(.(.E.` s.k.M C l p 8 l ^ L 4 < ^ l T * ~ (.`.",
"(.(.{ A 2 c Q b 8 q q 7 5 0 <.8.<.6 5 K % _ /.'.",
"`./.A + 1 $ , 9 0 4.8.7.9 <.J.T.L.5.:.4.o ~ (.].",
"`.(.~ Z W : z 0.q.<.6.S.H.Z.Y.R.U.H.G.t.;.S /.].",
").(.&.- Y G I 9.q.8.8.K.U.K.C.V.C.L.K.0.4.&._.).",
"(.).).$.V $ & 4 :.1.0.t.A.F.9.5 q.F.y.-.! '.].(.",
"'.(.).).+..._ X I U 4.6.u.y.r.2.r.A.u.7 ' (.(.(.",
"(.(.(.(.`.~.@.> < G A z 9.9.7.7.7.3.5.- [ (.'.(.",
"(.(.(.`.).O.O.b.s i R c p.v ^ J ( p.| ; [ (.`.(.",
"(.).'.(.X.o.Q.Q.O.u j | i.i.R B g i.| + [ (.'.(.",
"'.'.(...4 w.P.e.! s d x p.p.j s c c Q : { (.(.(.",
"'.[.!.# <.F.D.4.& A 2 , 2 Y G C 2 , 2   ` (.`.(.",
"'.'.'.$.4.,.>.3 1 @ . w j } W W h f y ) =._.`.(.",
"(.(.'.'.+.] ..A : o.b.v.k e r W } v.t X.`.`.(.(.",
"_.(.(.'.(.).`.=.D ! W.b.` ) ` A = H F &.)._.(.(.",
"(.(.(._._._.].`.E.` _ +.!.].].%.` L *._._.(.(.(.",
"(.(.(._.(.(._._.].(./.]._.].]._.(.(._.].(.(.(.(."
};
