/* XPM */
static char *result[] = {
/* columns rows colors chars-per-pixel */
"25 27 160 2 ",
"   c #001633",
".  c #001733",
"X  c #001735",
"o  c #001B33",
"O  c #001E33",
"+  c #001F33",
"@  c #081F34",
"#  c #0F1C34",
"$  c #161B34",
"%  c #101C34",
"&  c #1A1F34",
"*  c #201F34",
"=  c #221F34",
"-  c #291F34",
";  c #122033",
":  c #222035",
">  c #242034",
",  c #252136",
"<  c #282136",
"1  c #2A2136",
"2  c #2B2136",
"3  c #2D2237",
"4  c #2D2339",
"5  c #302236",
"6  c #342035",
"7  c #352234",
"8  c #372235",
"9  c #382135",
"0  c #392135",
"q  c #392337",
"w  c #3A2437",
"e  c #3F2537",
"r  c #3E2638",
"t  c #7C1839",
"y  c #412035",
"u  c #402235",
"i  c #422235",
"p  c #452035",
"a  c #462335",
"s  c #472335",
"d  c #402637",
"f  c #412637",
"g  c #442435",
"h  c #462737",
"j  c #4B2237",
"k  c #4C2136",
"l  c #442739",
"z  c #522236",
"x  c #512436",
"c  c #6D2538",
"v  c #792739",
"b  c #732938",
"n  c #782A38",
"m  c #7E2A39",
"M  c #7F2B39",
"N  c #7D283A",
"B  c #7F2C39",
"V  c #7A2A3E",
"C  c #673037",
"Z  c #6C3036",
"A  c #001454",
"S  c #001654",
"D  c #152754",
"F  c #162754",
"G  c #3E2848",
"H  c #2F2F56",
"J  c #3D2A53",
"K  c #3E2C53",
"L  c #4D1D4A",
"P  c #4D1E4A",
"I  c #751941",
"U  c #442E56",
"Y  c #452F57",
"T  c #462F57",
"R  c #4D3156",
"E  c #4F3156",
"W  c #4F3257",
"Q  c #47305A",
"!  c #48305A",
"~  c #503257",
"^  c #7B2D42",
"/  c #801C3A",
"(  c #872A37",
")  c #872639",
"_  c #8B273A",
"`  c #802B39",
"'  c #822C3A",
"]  c #832C3A",
"[  c #872D3A",
"{  c #902F3B",
"}  c #853437",
"|  c #8D3538",
" . c #8D393B",
".. c #933538",
"X. c #933C3B",
"o. c #A1393A",
"O. c #A4393B",
"+. c #A93B3B",
"@. c #9B423A",
"#. c #A3423A",
"$. c #A4453C",
"%. c #A9473C",
"&. c #AD483A",
"*. c #AF493B",
"=. c #B3473B",
"-. c #B2473C",
";. c #B1493B",
":. c #B34B3C",
">. c #B54B3C",
",. c #B64B3C",
"<. c #B54C3C",
"1. c #B64C3C",
"2. c #B8493C",
"3. c #BA4A3C",
"4. c #BF5F3A",
"5. c #C14C3D",
"6. c #C3503C",
"7. c #C7523C",
"8. c #C8573D",
"9. c #C25A3B",
"0. c #C55D3B",
"q. c #CA583D",
"w. c #CB593D",
"e. c #CC593D",
"r. c #D1653C",
"t. c #D96C3D",
"y. c #802F43",
"u. c #9F3C43",
"i. c #9F3D43",
"p. c #A03E43",
"a. c #A53D43",
"s. c #8E4C52",
"d. c #A74043",
"f. c #B66B52",
"g. c #B76B52",
"h. c #B86C52",
"j. c #CE7241",
"k. c #D67742",
"l. c #DA7742",
"z. c #D67842",
"x. c #DF7842",
"c. c #E07842",
"v. c #E17C43",
"b. c #E27C42",
"n. c #E27C43",
"m. c #E67D43",
"M. c #E28144",
"N. c #E18244",
"B. c #E38244",
"V. c #E98444",
"C. c #EA8444",
"Z. c #F38D44",
"A. c #F38F45",
"S. c #F48E44",
"D. c #F68F45",
"F. c #F59046",
"G. c #F59146",
"H. c #F69046",
"J. c #F79046",
"K. c None",
/* pixels */
"K.K.K.K.K.K.K.K.K.K.K.K.K.K.K.K.K.K.K.K.K.K.K.K.K.",
"K.K.K.K.K.K.K.K.K.K.K.K.K.K.K.K.K.K.K.K.K.K.K.K.K.",
"K.K.K.K.K.K.K.K.K.K.K.K.K.K.K.K.K.K.K.K.K.K.K.K.K.",
"K.K.K.K.K.K.K.K.K.K.K.K.K.K.K.K.K.K.K.K.K.K.K.K.K.",
"K.K.K.K.K.K.K.K.K.K.K.K.K.K.K.K.K.K.K.K.K.K.K.K.K.",
"K.K.K.K.K.K.K.K.K.K.K.K.K.K.K.K.K.K.K.K.K.K.K.K.K.",
"K.K.K.K.K.K.K.K.K.K.K.K.K.K.K.K.K.K.K.K.K.K.K.K.K.",
"K.K.K.K.K.K.K.K.K.K.K.K.K.K.K.K.K.K.K.K.K.K.K.K.K.",
"K.K.K.H D S A S S S S S S S S S S S A S F H K.K.K.",
"K.K.K P s.f.h.f.f.f.f.f.f.f.f.f.f.f.h.g.s.L J K.K.",
"K.K.! I 4.S.D.Z.Z.Z.Z.Z.Z.Z.Z.Z.Z.Z.D.S.4.I Q K.K.",
"K.K.~ a.t.H.F.A.A.A.A.A.A.A.A.A.A.A.G.J.t.a.W K.K.",
"K.K.R p.9.j.l.c.x.x.x.x.x.x.x.x.x.c.l.j.9.p.R K.K.",
"K.K.U ^ ( [ =.7.6.6.6.6.6.6.6.6.6.7.=.[ ( ^ U K.K.",
"K.K.R i.0.k.v.m.b.b.b.b.b.b.b.b.b.m.n.z.0.u.R K.K.",
"K.K.E d.r.B.N.M.V.C.V.C.C.C.V.C.V.M.N.B.r.d.E K.K.",
"K.K.T y...X. .$.8.e.q.w.e.w.q.e.8.$. .X...y.Y K.K.",
"K.K.G V ) / t _ O.+.o.| } | o.+.O._ t / ) V G K.K.",
"K.K.7 b ] M ` m v N c $ . $ c N v m ` M ] b 7 K.K.",
"K.K.2 8 u a s i 9 0 6 = & = 6 9 0 i s a u 8 1 K.K.",
"K.K.3 j y @ + - k z p # o % p z k - + @ y j 3 K.K.",
"K.K.q ' n > O x [ { B g ; g B { [ x O > n ' q K.K.",
"K.K.h -.#.*   Z 2.5.3.;.&.;.3.5.2.Z   * #.-.h K.K.",
"K.K.l %.@.: X C *.1.:.>.,.>.:.<.*.C X : @.%.l K.K.",
"K.K.4 r w < , 5 e f d d d d d f e 5 , < w r 4 K.K.",
"K.K.K.K.K.K.K.K.K.K.K.K.K.K.K.K.K.K.K.K.K.K.K.K.K.",
"K.K.K.K.K.K.K.K.K.K.K.K.K.K.K.K.K.K.K.K.K.K.K.K.K."
};
