/* XPM */
static char *result[] = {
/* columns rows colors chars-per-pixel */
"25 24 174 2 ",
"   c #040000",
".  c #290000",
"X  c #000025",
"o  c #12002F",
"O  c #001B2D",
"+  c #1E1B29",
"@  c #000132",
"#  c #000D31",
"$  c #000039",
"%  c #110035",
"&  c #001233",
"*  c #001D33",
"=  c #001E3F",
"-  c #131F34",
";  c #231C29",
":  c #240036",
">  c #261139",
",  c #2D153A",
"<  c #391C34",
"1  c #0A213D",
"2  c #1D223F",
"3  c #17233D",
"4  c #2C2135",
"5  c #23233F",
"6  c #2B243D",
"7  c #342235",
"8  c #392137",
"9  c #32233A",
"0  c #520F3F",
"q  c #791A3B",
"w  c #442536",
"e  c #472439",
"r  c #592636",
"t  c #572836",
"y  c #5D2834",
"u  c #552538",
"i  c #5D2D39",
"p  c #632E38",
"a  c #6A283B",
"s  c #7D2B3C",
"d  c #6D3139",
"f  c #733337",
"g  c #723038",
"h  c #002755",
"j  c #182C57",
"k  c #2E2541",
"l  c #2E264F",
"z  c #342A4E",
"x  c #3E2B4E",
"c  c #37244C",
"v  c #242B56",
"b  c #2E2B50",
"n  c #352C54",
"m  c #382D54",
"M  c #372B57",
"N  c #531049",
"B  c #6B1D41",
"V  c #631640",
"C  c #4E234E",
"Z  c #452B4F",
"A  c #51294E",
"S  c #5F2546",
"D  c #412B54",
"F  c #532D51",
"G  c #5E2C51",
"H  c #573154",
"J  c #642946",
"K  c #6B2B42",
"L  c #6A2443",
"P  c #742B43",
"I  c #702443",
"U  c #69324C",
"Y  c #693A44",
"T  c #713847",
"R  c #6B2D50",
"E  c #7E404E",
"W  c #832F3A",
"Q  c #8A2D39",
"!  c #832439",
"~  c #942D38",
"^  c #813C39",
"/  c #88373F",
"(  c #92333A",
")  c #963E3C",
"_  c #C63F3C",
"`  c #97413C",
"'  c #AA463D",
"]  c #AB483E",
"[  c #A2443D",
"{  c #B1443A",
"}  c #B24A3B",
"|  c #BD4B3C",
" . c #BD543C",
".. c #886831",
"X. c #C44E3D",
"o. c #C5543D",
"O. c #C35D3F",
"+. c #CD643D",
"@. c #D66B3F",
"#. c #CD713E",
"$. c #DB763D",
"%. c #81394C",
"&. c #873348",
"*. c #963746",
"=. c #AF3E42",
"-. c #85404D",
";. c #8B4A4E",
":. c #984240",
">. c #994949",
",. c #8B584F",
"<. c #9D5A4E",
"1. c #814B50",
"2. c #A25344",
"3. c #AE5B44",
"4. c #A05D4E",
"5. c #B05742",
"6. c #B25D47",
"7. c #BA6141",
"8. c #CC5F42",
"9. c #D75E42",
"0. c #D46A41",
"q. c #DD6C42",
"w. c #CA7D47",
"e. c #C7724E",
"r. c #D67A43",
"t. c #D87445",
"y. c #E17D42",
"u. c #E97744",
"i. c #7E9075",
"p. c #848B35",
"a. c #878736",
"s. c #888923",
"d. c #DA9E00",
"f. c #E59012",
"g. c #F1A81F",
"h. c #EE8B3F",
"j. c #E9972A",
"k. c #DAA13F",
"l. c #DFD400",
"z. c #FBD016",
"x. c #DECE3B",
"c. c #DFD53B",
"v. c #DEDA39",
"b. c #E7C13E",
"n. c #F5D13F",
"m. c #848A50",
"M. c #878744",
"N. c #D09149",
"B. c #CC8B49",
"V. c #E18342",
"C. c #EC8343",
"Z. c #EE8A45",
"A. c #ED8248",
"S. c #F48C46",
"D. c #F08546",
"F. c #EC9543",
"G. c #E69840",
"H. c #F29545",
"J. c #F29A45",
"K. c #F1A344",
"L. c #E6B441",
"P. c #DDCF5A",
"I. c #E9C144",
"U. c #F6C841",
"Y. c #FAD644",
"T. c #EAC754",
"R. c #DCD971",
"E. c #FBDE6D",
"W. c #7B8C86",
"Q. c #D7E5B4",
"!. c #F1F1A7",
"~. c #F9FDBE",
"^. c #D5E5CD",
"/. c None",
/* pixels */
"/././././././././././././././././././././././././.",
"/./././.; /././././././././././././././.; /./././.",
"/././.6 6 6 < Y 1.T w 6 6 5 1 3 6 6 6 6 6 4 /././.",
"/./.4 l n z 0 2.e.3.L c b z l l z z z n M z 6 /./.",
"/.; k m M m N 3.r.7.L c j m R R c v M n M n k ; /.",
"/.; 6 n n n v U / U M n h G =.*.D h m n m n 6 ; /.",
"/.; k z H P P s ! s J J >.B.b.L.w.*.B P F n 5 ; /.",
"/.; 2 z F P P L B q q Q | G.Y.L.B.*.V P A z 5 ; /.",
"/.+ 6 z D F A A C I ~ { o.$.K.N.,.C C A D n 6 ; /.",
"/.+ k b H %.P ;.4.6.O.@.@.@.u.t.4.T %.%.F n 5 ; /.",
"/.; 1 z -.8.o.@.C.H.H.Z.Z.Z.Z.Z.C.0.o.o.-.x = ; /.",
"/.1 > P 5.u.C.u.J.U.Y.J.D.Z.A.D.S.C.h.C.5.K > * /.",
"/.* , K 2.r.V.q.y.L.n.h.u.S.g.j.u.q.y.r.2.K , * /.",
"/.+ 5 x U )  .o.+.Z.J.J.u.K.Y.I.#._  .) U x 5 + /.",
"/.O 9 J *.{ 9.k.b.n.n.n.z.E.~.!.T.f.+.{ &.J 9 O /.",
"/.1 8 a ~ { +.k.x.v.v.P.l.R.^.Q.P.d.8.} ( a 8 1 /.",
"/.- 4 e y f ^ ..a.p.p.a.s.m.W.i.M...^ f y e 4 - /.",
"/.- 8 e < & @ $ % : @ @ $ X   . o @ @ * < w 8 - /.",
"/.* u W s , * r Q ( W r 7 y W ( Q y * , s W u * /.",
"/.@ g ' ' 7 & f } X.| } } } | o.} f & 8 ' ' g @ /.",
"/.& p :.` 4 * d [ } 2.' ] ] ] ] :.d * 4 ) ` p # /.",
"/./.w i p 4 1 w p d g g g f d f d w - 4 p i w /./.",
"/././.# /././././././././././././././././.# /././.",
"/././././././././././././././././././././././././."
};
