/* XPM */
static char *result[] = {
/* columns rows colors chars-per-pixel */
"31 31 228 2 ",
"   c #2D5C3F",
".  c #256234",
"X  c #2C6D3C",
"o  c #2C6E3D",
"O  c #2B7E33",
"+  c #2D7F37",
"@  c #2D7C38",
"#  c #2D7F38",
"$  c #2D7C3A",
"%  c #2E7A3C",
"&  c #2F7B3C",
"*  c #2D7D3E",
"=  c #2E7C3E",
"-  c #2F7D3E",
";  c #307A3D",
":  c #30793E",
">  c #351F53",
",  c #332E4F",
"<  c #2E3C46",
"1  c #2F3D49",
"2  c #2F3E49",
"3  c #2F3F49",
"4  c #32334B",
"5  c #30354A",
"6  c #32344B",
"7  c #30364A",
"8  c #32364B",
"9  c #33324D",
"0  c #33334D",
"q  c #34314F",
"w  c #32364C",
"e  c #33364C",
"r  c #33344E",
"t  c #33374E",
"y  c #34354E",
"u  c #34344F",
"i  c #34354F",
"p  c #34364F",
"a  c #303B4A",
"s  c #303B4B",
"d  c #313C49",
"f  c #303D49",
"g  c #303E49",
"h  c #313C4A",
"j  c #313D4A",
"k  c #323C4B",
"l  c #333C4B",
"z  c #313F4A",
"x  c #323E4A",
"c  c #33384D",
"v  c #333B4C",
"b  c #323A4D",
"n  c #333A4D",
"m  c #333B4D",
"M  c #33384E",
"N  c #33394E",
"B  c #34394E",
"V  c #34394F",
"C  c #343A4E",
"Z  c #313C4C",
"A  c #323C4C",
"S  c #323D4C",
"D  c #323C4D",
"F  c #323E4C",
"G  c #323E4D",
"H  c #333E4D",
"J  c #333F4E",
"K  c #353F4E",
"L  c #352551",
"P  c #362154",
"I  c #372754",
"U  c #382455",
"Y  c #382555",
"T  c #382754",
"R  c #372953",
"E  c #372A52",
"W  c #372A53",
"Q  c #372B53",
"!  c #332E50",
"~  c #332F50",
"^  c #342D51",
"/  c #352F50",
"(  c #362F50",
")  c #362F51",
"_  c #372C52",
"`  c #372C53",
"'  c #372D53",
"]  c #362F52",
"[  c #372E53",
"{  c #372F53",
"}  c #372854",
"|  c #372954",
" . c #372A54",
".. c #372E54",
"X. c #382C53",
"o. c #382854",
"O. c #382954",
"+. c #382855",
"@. c #392855",
"#. c #382A54",
"$. c #382A55",
"%. c #363051",
"&. c #353350",
"*. c #353251",
"=. c #353351",
"-. c #373052",
";. c #363152",
":. c #373053",
">. c #353352",
",. c #363252",
"<. c #363352",
"1. c #343550",
"2. c #363750",
"3. c #353552",
"4. c #363552",
"5. c #363652",
"6. c #343950",
"7. c #363850",
"8. c #343A50",
"9. c #353F51",
"0. c #2A4741",
"q. c #2E4246",
"w. c #2E4346",
"e. c #2E4247",
"r. c #2D4744",
"t. c #2D4645",
"y. c #2C4745",
"u. c #2D4745",
"i. c #2F4048",
"p. c #304149",
"a. c #31404A",
"s. c #31404B",
"d. c #304648",
"f. c #33444B",
"g. c #32414D",
"h. c #33404E",
"j. c #33414E",
"k. c #35434F",
"l. c #33464F",
"z. c #36444F",
"x. c #32494B",
"c. c #324D4B",
"v. c #324E4B",
"b. c #34484E",
"n. c #354E4E",
"m. c #364F4F",
"M. c #2F5445",
"N. c #2E5545",
"B. c #2E5645",
"V. c #2F5646",
"C. c #2D5C40",
"Z. c #2D5C41",
"A. c #2F5B44",
"S. c #305646",
"D. c #315647",
"F. c #315F47",
"G. c #325049",
"H. c #325149",
"J. c #315248",
"K. c #33504A",
"L. c #31554B",
"P. c #32544A",
"I. c #33564A",
"U. c #31544C",
"Y. c #36574D",
"T. c #315849",
"R. c #325A49",
"E. c #325B49",
"W. c #31584A",
"Q. c #33594A",
"!. c #33594B",
"~. c #34594B",
"^. c #305E48",
"/. c #305F48",
"(. c #305F49",
"). c #355D4A",
"_. c #345E4B",
"`. c #355B4D",
"'. c #355C4D",
"]. c #354050",
"[. c #354051",
"{. c #344350",
"}. c #2F6C41",
"|. c #306742",
" X c #306345",
".X c #306047",
"XX c #336047",
"oX c #316647",
"OX c #326747",
"+X c #306D42",
"@X c #316F42",
"#X c #316944",
"$X c #336D44",
"%X c #346C47",
"&X c #346E47",
"*X c #36604A",
"=X c #36614A",
"-X c #326648",
";X c #326748",
":X c #326749",
">X c #35604C",
",X c #34604D",
"<X c #37634F",
"1X c #38644F",
"2X c #326848",
"3X c #356B4E",
"4X c #386B4E",
"5X c #2F7042",
"6X c #327640",
"7X c #327642",
"8X c #347044",
"9X c #347946",
"0X c #357946",
"qX c #27872F",
"wX c #28862F",
"eX c #29862F",
"rX c #268928",
"tX c #2B8333",
"yX c #2C8434",
"uX c #2C8435",
"iX c #2C8436",
"pX c #288830",
"aX c #298930",
"sX c #2D8D34",
"dX c #2E8E35",
"fX c #2D9234",
"gX c #2D9335",
"hX c None",
/* pixels */
"hXhXhXhXhXhXhXwXhXhX; @ hXhXhXO & hXhXhXgXdXhXeXhXhXhXhXhXhXhX",
"hXhXhXhXhXhX*XT..X@XQ.D.A.XX XJ.'.OX. N.:X5XF.T.*XhXhXhXhXhXhX",
"hXhXhXaX+XZ.I.1.3.].p Z g.b.l.t V H d.A w j.4.p I.Z.}.pXhXhXhX",
"hXhXhXX -X8.t t.3 a h 2 s M e.e.f q.m k 0.3 j u.c 8.;Xo hXhXhX",
"hXhX&Xn.r.u.( N z D C v *.%.A 1.>.l u ] V F x N ( u.r.m.%XhXhX",
"hXhXE.[.7 w.;.U  .o._ ) R $.O.} I } W | Y o.R U ;.w.5 [.E.hXhX",
"hX= c.6 F X.E ' Q ` ` Q ` ` ` ' ` ` ` ' ' Q Q ' E X.S 6 c.= hX",
"hX(.{.f p @.` ` ` ` ` Q ` ` ` ` ` ` ` ` ` ` ` ' ` @.p f {.(.hX",
"yXL.q p.&.I ' ` ` ` ` ` ` ` ` ` ` ` ` ` ` ` ` ` ' I &.p.q L.iX",
"$X`.K e ,.W ` ` ` ` ` ` ` ` ` ` ` ` ` ` ` ` ` ` ` W ,.e K `.8X",
"# |.J ^ -.Q ` ` ` ` ` ` ` ` ` ` ` ` ` ` ` ` ` ` ` Q -.^ J |.+ ",
": Y.s.i.:.o.' ` ` ` ` ` ` ` ` ` ` ` ` ` ` ` ` ` ' o.:.i.s.Y.: ",
"hX4XB.< ,.W ' ` ` ` ` ` ` ` ` ` ` ` ` ` ` ` ` ` ' W ,.< B.4XhX",
"hX+Xz.9 b Q Q ` ` ` ` ` ` ` ` ` ` ` ` ` ` ` ` ` Q Q n 0 k.+XhX",
"rXM./ z M +.` ` ` ` ` ` ` ` ` ` ` ` ` ` ` ` ` ` ` +.M a./ M.rX",
"hX#XS.g Q #.' ` ` ` ` ` ` ` ` ` ` ` ` ` ` ` ` ` ' #.Q 3 V.#XhX",
"hX0X~.>  .[ ` ` ` ` ` ` ` ` ` ` ` ` ` ` ` ` ` ` ` [  .P ~.9XhX",
"hXoXx.~ { Q ` ` ` ` ` ` ` ` ` ` ` ` ` ` ` ` ` ` ` Q { ~ x.oXhX",
"hXH.v y.&.T ' ` ` ` ` ` ` ` ` ` ` ` ` ` ` ` ` ` ' T &.y.v G.hX",
"7X_.2.r <.R ` ` ` ` ` ` ` ` ` ` ` ` ` ` ` ` ` ` ` R <.r 7.).6X",
"hX1XK.L ..' ` ` ` ` ` ` ` ` ` ` ` ` ` ` ` ` ` ` ` ' ..L K.<XhX",
"3X>Xf.8 ,.R ` ` ` ` ` ` ` ` ` ` ` ` ` ` ` ` ` ` ` R ,.8 f.,X3X",
"uXU.! p.=.I ' ` ` ` ` ` ` ` ` ` ` ` ` ` ` ` ` ` ' I =.p., P.tX",
"hX^.{.f y +.` ` ` ` ` Q ` ` ` ` ` ` ` ` ` ` ` ' ` @.i f {./.hX",
"hX* v.4 S X.E ' Q ` ` Q ` ` ` ' ` ` ` ' ' Q Q ' E X.S 4 v.- hX",
"hXhXE.[.7 w.;.U  .o._ ) R $.O.} I } W | Y o.R U ;.w.7 9.R.hXhX",
"hXhX&Xn.r.u.( N z D C v *.%.A 1.>.l u ] V F x N ( u.r.n.&XhXhX",
"hXhXhXX -X8.t t.3 a d 1 s M e.e.f q.m k 0.3 j u.c 6.;XX hXhXhX",
"hXhXhXaX+X  I.1.3.].i Z g.b.l.t B G d.A w h.5.p I.C.+XaXhXhXhX",
"hXhXhXhXhXhX*XT..X@X!.D.A.XX XJ.'.2X. B.:X5XF.W.=XhXhXhXhXhXhX",
"hXhXhXhXhXhXhXwXhXhX% $ hXhXhXO & hXhXhXfXsXhXqXhXhXhXhXhXhXhX"
};
